<svg id="asset" xmlns="http://www.w3.org/2000/svg" viewBox="0 0 329 50">
    <path fill="#00529F" d="M36.9 29.6c.9 3.5 3.9 6.2 5.4 9.3 1.5-3.1 4.4-5.8 5.4-9.3 1.8-5.4-2.7-9.6-5.3-13.8-2.8 4.2-7.3 8.4-5.5 13.8M42.3 41.2c-.3-.8-1.1-2.2-1.1-2.2s-2.7-6.4-11.2-6.2c-2.5.1-3.2.1-3.7.1h-1.2v.1c0 .1-.1.5-.2 1.7-.2 1.9.1 4.5 3 7.4 2.3 2.3 4.6 2.5 8.1 2.7 3.5.2 4.3 1.1 5 1.9.6.7 1.3 2.5 1.3 2.7.1-.3.7-2.1 1.3-2.7.7-.8 1.5-1.7 5-1.9 3.5-.2 5.8-.3 8.1-2.7 2.9-2.9 3.1-5.4 3-7.4-.1-1.2-.2-1.6-.2-1.7v-.1h-1.2c-.4 0-1.2-.1-3.7-.1-8.5-.2-11.2 6.2-11.2 6.2s-.8 1.4-1.1 2.2M51.1 0H32.5s-.1 0-.1.1C22.1 11.7 11.9 24.1 2 35.9c0 0-.4.5-.8 1.2-.4.8-.6 1.3-.6 1.3-1.4 3.9-.1 8.8 2.9 11.4h17.4l-1-1.5c-1.9-2.9-2.3-7-.5-10.2.1-.1.2-.4.3-.5l.3-.4C30 24.9 40.3 12.9 50.8.5l.4-.5h-.1z" />
    <g fill="#009FE0">
        <path d="M83.9 38.5s-.2-.6-.6-1.4c-.3-.5-.8-1.2-.8-1.2C72.7 24.3 62.6 12 52.9 0l-9.4 11.2-.4.5c7.2 8.5 14.4 17 21.4 25.7l.3.4c.1.2.3.4.3.5 1.8 3.2 1.4 7.2-.5 10.2l-1 1.5H81c3.1-2.7 4.4-7.6 2.9-11.5m135.8 9c.1-.7-.6-1.3-1.1-1.7-.6-.5-1.2-.9-1.7-1.5-.5-.5-.6-1.2-.6-1.9 0-.8-.1-1.6-.1-2.4-.1-1.7-.1-3.4 0-5.1 0-1.7.1-3.4.2-5.1.1-1.8 1.6-1.5 2.8-1.6.7-.1 1.4-.2 1.8-.8.3-.5.3-1.2.4-1.8 0-.6.1-1.5-.3-2.1-.3-.5-1-.6-1.5-.6-1.1 0-2.5.3-2.7-1.2-.2-1.4.5-2.7.1-4.1-.1-.6-.6-1.3-1.3-1.2-.7 0-1.3.5-1.8.9-1.3 1-2.6 2.1-3.8 3.2-1.2 1-2.4 2.1-4 2.4-1.6.3-3.2.1-4.8.3-1.5.2-2.7.9-3.6 2-.3.3-.8 1.1-1.3 1.1-.4 0-.4-.5-.4-.8 0-.9.1-1.9-.6-2.6-.5-.5-1.3-.5-1.9-.5-.8 0-1.6 0-2.4.1-.9.1-1.7.1-2.6.2-.7.1-1.5.2-2.1.5-.6.3-1.1.9-.9 1.6.2.7.9 1.1 1.3 1.6.5.5.6 1.2.6 1.9 0 .8.1 1.6.1 2.4.1 3.5.1 7-.1 10.5-.1.9-.1 1.7-.2 2.6-.1.8-.3 1.4-.8 2-.4.5-.8 1-.8 1.7 0 .6.4 1.2 1 1.5.6.3 1.4.4 2.1.4.8 0 1.5 0 2.3.1 1.5 0 3 0 4.4-.1 1-.1 2.2-.3 2.6-1.3.4-1.1-.4-1.9-.9-2.8-.3-.5-.4-1.1-.4-1.7v-2.5-5.4-2.6c0-.7.1-1.4.4-2.1 1.2-2.1 3.8-2.3 5.9-2.3.5 0 1.1 0 1.6.1.5 0 1.1 0 1.5.2.6.3.8.8.8 1.4 0 .8 0 1.6-.1 2.4 0 1.8-.1 3.6-.1 5.3 0 1.7-.2 3.3-.2 5 0 1.4.2 3 1 4.2 0 0 1.1 2 5.2 2.1 4.3.2 6.7 0 7-1.9M104.9 21.6c-.7 0-1.2.5-1.6 1.3l-2.6 7.8s-.2.7.4.8c1.1.2 2 .4 3 .4H106c.8 0 1.7-.1 2.2-.7 0 0 .2-.2.1-.9-.1-.5-.9-4-1.3-6.2 0 .2-.6-2.5-2.1-2.5M92.7 49.9c-4.3-.1-3.3-3.7-3.3-3.7l2.8-7.3c2.2-5.3 4-10.6 6-16l1.2-3.4c.3-.8.6-1.7.5-2.5 0 0-.2-1.2-.6-1.5-.4-.3-1.3-2.9 3.8-2.7 0 0 5.8 0 7.8.5 0 0 1.8.3 2.6 3.6l7.2 27.1s.5 1.9 1.8 1.8c1.8 0 1.7-3.4 1.7-3.4s.1-1.5.1-2c.2-5.3.3-11.4 0-16.9l-.1-2.1c-.1-2.3-4.2-4.1-.6-5.6 2.3-1 4.6-2.1 7-2.9 0 0 3.3-1.2 3.2 1.7-.4 8.7-.7 17.9-.5 26.3 0 .3.1 3 .1 3 .1 1.2 1.3 2 1.8 3 0 0 .9 1.4-1.9 2.4-2.2.8-14.1.5-19 .4-4.4 0-4.1-2.5-4.1-2.5.2-1.3.4-1.1 1-2.2s0-2.3 0-2.4c-.3-.9-1.2-4.2-1.2-4.2s-.2-.9-1.4-1c-1.9-.1-4 .2-5.7-.4-1.5-.3-2.5-2.1-2.5-2.1s-.3-.4-.6-.4-.4.4-.4.4c-1 3-1.9 5.9-2.8 8.8-.8 2.6 1.5 2.8 1 4.8.1.1.1 1.6-4.9 1.4m147.8-2.5c1.3-1.3 1.9-3.2 2.1-5.1 0 0 .6-3.4-.9-5.7-2.2-3.2-7.1-3.2-10.3-5.6 0 0-1.5-.8-1.6-2.3 0 0 0-2.1 2.4-2.3 2.4-.3 3.4.6 3.4.6.2.1.3.2.4.4 1 1.3-.5 2.4-.8 3.7-.1.5.1.6.1.6.3.5.9.6 1.5.7.9.2 1.5 0 2.1-.5.7-.5 1.5-1.6 1.5-1.6.2-.3.5-.8.7-1.3.5-1.2 1-2.5.8-3.8 0 0-.2-1-1.3-1.7-4.6-2.5-10.8-2.2-15.6 0-1.9.9-2.7 3-2.9 5 0 0-.2 2.3 0 4 .4 3.3 3.3 5.1 6 6.1 0 0 6.5 1.9 6.8 4 .3 2-1.4 3.2-3.4 2.9 0 0-2.6-.1-4.1-1.2-1.3-.9-2.4-2.7-2.9-3.4-.2-.2-.4-.4-.6-.5-.5-.2-1.3-.4-1.9.2-.1.1-.2.3-.2.4-.2 1.2-1 6.4 1.7 7.7 2.5 1.1 13.4 2.5 17-1.3m79.1 0c1.3-1.3 1.9-3.2 2.1-5.1 0 0 .6-3.4-.9-5.7-2.2-3.2-7.1-3.2-10.3-5.6 0 0-1.5-.8-1.6-2.3 0 0 0-2.1 2.4-2.3 2.4-.3 3.4.6 3.4.6.2.1.3.2.4.4 1 1.3-.5 2.4-.8 3.7-.1.5.1.6.1.6.3.5.9.6 1.5.7.9.2 1.5 0 2.1-.5.7-.5 1.5-1.6 1.5-1.6.2-.3.5-.8.7-1.3.5-1.2 1-2.5.8-3.8 0 0-.2-1-1.3-1.7-4.6-2.5-10.8-2.2-15.6 0-1.9.9-2.7 3-2.9 5 0 0-.2 2.3 0 4 .4 3.3 3.3 5.1 6 6.1 0 0 6.5 1.9 6.8 4 .3 2-1.4 3.2-3.4 2.9 0 0-2.6-.1-4.1-1.2-1.3-.9-2.4-2.7-2.9-3.4-.2-.2-.4-.4-.6-.5-.5-.2-1.3-.4-1.9.2-.1.1-.2.3-.2.4-.2 1.2-1 6.4 1.7 7.7 2.5 1.1 13.3 2.5 17-1.3m-28.5-24.5c-1.4-1.5-3.5-1.1-5.7-.4-2 .6-3.1 1.7-4.7 2.4-.7.3-.8-.2-.8-.2-.2-.4 0-.9-.3-1.5-.5-1-1.6-1-2.6-1-1.2.1-5 .8-5 .8-.8.2-1.6.5-2.2 1.2-1 1.7 1.4 2.7 1.4 4.3.4 4.8.7 10.7.3 15.8-.3 1.2-1.6 2-1.4 3.3 0 0-.1 2.1 4.5 2.2 4.6.1 6.8-.2 7.2-1.8 0 0 .2-1.3-.9-2.5-1.4-1.5-1-13.2-1-13.2s-.4-2.6 1.7-2.9c2.1-.2 2.7 1.8 2.7 1.8 1.6 5.2 2.7 10.9 4.1 16.2 0 0 .7 2.3 3.9 2.4 3.1 0 6 .1 7-1 0 0 1.4-2.2-.9-3.5 0 0-.5-.5-.8-1.3-1.9-5.4-2.9-11.1-4.6-16.6-.6-2.3-.8-3.2-1.9-4.5m-34.4 3.6s-4-.6-4.2 3.6c-.1 2.1 0 7.7.4 10.1.4 2.5 1.3 3.7 2.1 4.2.8.6 1.7.6 2.6.6 0 0 2.1-.3 2.6-1.4.8-1.5.8-2.8.8-5.3 0 0-.2-8.5-1.9-10.5-1-1.1-2.4-1.3-2.4-1.3m4.6 23.2c-3.9.6-8.9.4-11.7-.5-3.2-1-4.6-3.9-5.1-6.9-1.2-7.3 0-12.7 0-12.7.5-2.5 1.3-5.2 3.8-6.3 4.9-2.1 9.8-1.7 12.9-.9 1.6.4 2.5 1.1 2.5 1.1 1.2.8 3.1 2.6 3.8 5 1.2 4.2 1.5 8.3 1.1 12.8.1-.1-.8 7.4-7.3 8.4m-109.7-5.2s.5-.5.9-1.7c.6-2.4-.2-5-.6-7.5l-.3-1.6c-.5-1.7-.8-3.7-2.5-4.5-.4-.2-.8-.1-.8-.1-.5.1-1 .1-1.6.8 0 0-.4.3-.5 1.5 0 0-.2 8.8-.1 10.4.1 1.6.4 2.3.4 2.3.4.9 1.1 1.1 1.1 1.1.4.2 1 .3 1.5.3 1.5.2 2.5-1 2.5-1m1.2 5.1c-4.5.8-12.3 0-12.3 0-1.6 0-3.2-.3-3.7-1.2-.6-1 .6-2.8.6-2.8.2-.2.3-.8.3-.8.5-6.8.6-13.3.3-20.1l-.1-2.6c-.1-1.7-3.1-2.4-1.1-4.1 2.5-1.7 5.1-3 7.8-4.2 1.1-.5 1.4 0 1.4 0 .4.3.4 1.1.4 1.1v9.3s-.1.9.5.7c1.4-.6 2.9-1.4 4.4-2 3.2-1.3 5.2 1.4 5.2 1.4 2.3 2.5 3.8 9.2 3.8 9.2 1 4.7 1.4 10.6-2.3 14.3-1.4 1.2-5.2 1.8-5.2 1.8m19.5-13.9c1.7.1 4-.1 4.7-1.7.9-2.1.4-4.7-.6-6.6 0 0-.3-.6-.9-.9-.7-.3-1.4-.4-2.2-.1-.2.1-.5.2-.5.2-.9.6-1.3 1.5-1.5 2.6 0 0-.4 2.5-.3 5.3.1-.1 0 1.1 1.3 1.2m8.8 2.4c.5-.1 1 .2 1 .2 1.3.6 2.5 1.3 2.5 2.8 0 3-1.5 5.9-4.3 7.4-3.4 1.6-7.5 1.5-11.2.8-4-.8-5.4-4.3-5.4-4.3-1.5-5.3-1.4-11.8.2-17.2.5-1.7 1.1-2.5 1.1-2.5 1.4-1.9 3.8-2.7 6.1-3 3.7-.5 6.2 0 7.5.3 1.6.4 2.2.9 2.2.9.7.5 1.2 1.1 1.8 1.8.3.5.5.8.5.8 1.4 2.6 2.2 5.7 1.6 8.7-.1.3-.1.5-.2.7-.2.4-.5.7-.8.9-.7.4-2.2 1.2-5 1.8 0 0-4.2.9-6 1.2 0 0-1.7.2-1.6 1.3.3 3.1 1.4 4 1.4 4s.6.8 1.6 1.1c0 0 2.6.6 4-.9 0 0 1.1-.6 1.6-3.7 0 0 .5-1.7.9-2.6 0-.1.1-.4.5-.5" />
        <text x="329" y="27" font-family="sans-serif" font-size="10" text-anchor="end">®</text>
    </g>
</svg>
