<svg width="750" height="564" viewBox="0 0 750 564" fill="none" xmlns="http://www.w3.org/2000/svg">
<path d="M374.156 415.79C550.887 415.79 694.156 360.766 694.156 292.891C694.156 225.016 550.887 169.993 374.156 169.993C197.425 169.993 54.1562 225.016 54.1562 292.891C54.1562 360.766 197.425 415.79 374.156 415.79Z" fill="#F7F1DF"/>
<path d="M384.395 196.275C384.395 196.275 496.795 204.179 462.663 227.679C428.531 251.18 303.709 243.376 303.709 243.376C303.709 243.376 303.904 239.867 300.51 240.516C297.117 241.165 260.849 242.371 255.175 242.111" fill="#EDD1B4"/>
<path d="M433.51 227.731C422.978 236.446 383.26 248.313 321.274 248.313C312.003 248.313 303.975 248.09 295.798 247.627C295.175 247.59 294.589 247.323 294.153 246.877C293.718 246.431 293.465 245.839 293.443 245.216C293.313 240.952 293.442 235.63 293.683 233.312C279.758 232.237 259.622 244.271 248.979 242.454C227.136 238.745 212.562 234.073 207.036 231.532C199.935 228.269 201.604 181.357 209.039 169.731C218.588 154.805 249.738 169.731 321.274 169.731C360.027 169.731 421.253 146.795 433.51 169.731C439.703 181.32 436.81 225.024 433.51 227.731Z" fill="#FADB7D"/>
<path d="M321.274 190.298C383.26 190.298 433.509 181.083 433.509 169.716C433.509 158.349 383.26 149.134 321.274 149.134C259.288 149.134 209.038 158.349 209.038 169.716C209.038 181.083 259.288 190.298 321.274 190.298Z" fill="#F7CC4A"/>
<path d="M250.406 185.671L317.639 174.545L295.667 190.251C295.667 190.251 293.627 238.886 293.627 234.288C282.613 236.587 253.206 243.559 249.126 242.391C248.959 227.576 250.406 185.671 250.406 185.671Z" fill="#F59F49"/>
<path d="M535.434 280.556C545.7 282.199 577.148 282.479 585.32 276.369C593.492 270.259 561.021 260.862 554.648 260.118C548.274 259.373 523.091 245.758 512.98 247.154C502.87 248.549 487.503 256.613 486.355 260.459L485.223 264.304C485.223 264.304 507.864 268.476 512.252 267.871C516.64 267.266 535.434 280.556 535.434 280.556Z" fill="#EDD1B4"/>
<path d="M445.568 218.637L444.886 212.806L470.674 205.177C472.805 204.543 475.045 204.369 477.249 204.665L510.465 209.038C511.58 209.181 512.6 209.739 513.322 210.602C514.044 211.464 514.413 212.567 514.357 213.69L513.008 247.185C512.973 248.21 512.668 249.207 512.123 250.076C511.579 250.945 510.814 251.654 509.906 252.132L488.771 262.986C488.06 263.354 487.248 263.474 486.461 263.328C485.675 263.182 484.96 262.778 484.429 262.18L445.568 218.637Z" fill="#F7CC4A"/>
<path d="M485.206 264.301L446.687 257.183C445.288 257.183 443.947 256.628 442.958 255.639C441.97 254.65 441.415 253.309 441.415 251.911V217.656C441.415 216.258 441.97 214.917 442.958 213.928C443.947 212.939 445.288 212.384 446.687 212.384L485.206 219.486C486.604 219.486 487.945 220.041 488.934 221.03C489.923 222.019 490.478 223.36 490.478 224.758V259.029C490.478 259.721 490.342 260.407 490.077 261.046C489.812 261.686 489.424 262.267 488.934 262.757C488.445 263.246 487.863 263.635 487.224 263.9C486.584 264.165 485.898 264.301 485.206 264.301Z" fill="#F59F49"/>
<path d="M507.41 244.662L506.852 240.01L527.523 233.808C529.234 233.31 531.029 233.173 532.795 233.404L559.405 236.909C560.292 237.028 561.101 237.474 561.675 238.16C562.249 238.846 562.546 239.722 562.507 240.615L561.421 267.458C561.391 268.284 561.141 269.088 560.696 269.786C560.252 270.483 559.63 271.05 558.893 271.427L541.944 280.173C541.376 280.467 540.728 280.564 540.099 280.449C539.47 280.334 538.898 280.013 538.471 279.538L507.41 244.662Z" fill="#F7CC4A"/>
<path d="M539.224 281.259L508.366 275.568C507.81 275.57 507.26 275.463 506.747 275.251C506.233 275.04 505.767 274.73 505.373 274.338C504.98 273.946 504.668 273.481 504.455 272.968C504.242 272.455 504.132 271.905 504.132 271.35V243.887C504.132 242.765 504.579 241.688 505.373 240.894C506.166 240.1 507.243 239.654 508.366 239.654L539.224 245.36C539.78 245.358 540.33 245.466 540.843 245.677C541.357 245.888 541.824 246.198 542.217 246.59C542.611 246.982 542.922 247.448 543.135 247.961C543.348 248.473 543.458 249.023 543.458 249.578V277.041C543.458 277.596 543.348 278.146 543.135 278.659C542.922 279.172 542.611 279.637 542.217 280.029C541.824 280.421 541.357 280.731 540.843 280.942C540.33 281.153 539.78 281.261 539.224 281.259Z" fill="#F59F49"/>
<path d="M500.398 202.262L499.84 197.61L520.557 191.407C522.26 190.898 524.052 190.755 525.814 190.989L552.439 194.493C553.327 194.616 554.136 195.066 554.71 195.754C555.284 196.442 555.58 197.32 555.541 198.215L554.471 225.057C554.44 225.884 554.19 226.688 553.746 227.386C553.302 228.083 552.68 228.65 551.943 229.027L534.994 237.773C534.424 238.06 533.775 238.151 533.147 238.034C532.52 237.916 531.948 237.596 531.52 237.122L500.398 202.262Z" fill="#F7CC4A"/>
<path d="M532.206 238.824L501.332 233.132C500.777 233.132 500.227 233.023 499.714 232.81C499.202 232.597 498.736 232.285 498.344 231.892C497.952 231.499 497.642 231.031 497.431 230.518C497.22 230.004 497.112 229.454 497.114 228.899V201.436C497.114 200.318 497.558 199.245 498.349 198.454C499.14 197.663 500.213 197.219 501.332 197.219L532.206 202.909C533.325 202.909 534.398 203.354 535.189 204.145C535.98 204.936 536.425 206.009 536.425 207.127V234.59C536.427 235.146 536.318 235.696 536.107 236.209C535.896 236.723 535.586 237.189 535.194 237.583C534.802 237.976 534.337 238.288 533.824 238.501C533.312 238.714 532.762 238.824 532.206 238.824Z" fill="#F59F49"/>
<path d="M465.753 303.345C465.753 303.345 491.26 302.186 477.347 291.751C463.434 281.315 348.651 278.996 348.651 278.996L465.753 303.345Z" fill="#EDD1B4"/>
<path d="M467.379 256.739C464.634 256.739 344.486 234.146 344.486 234.146L348.41 279.116L465.844 303.245L467.379 256.739Z" fill="#F7CC4A"/>
<path d="M467.379 256.732C467.379 256.732 401.103 210.552 396.388 211.762C391.674 212.971 345.866 225.95 344.486 234.169C343.106 242.388 344.843 278.441 348.41 279.139L465.844 303.268L465.921 301.128L349.619 277.387C349.619 277.387 348.208 234.82 349.727 235.099L467.379 256.732Z" fill="#E84646"/>
<path d="M375.646 239.955C380.702 233.598 387.411 228.756 395.037 225.96C402.663 223.165 410.912 222.524 418.879 224.107C425.19 228.185 429.734 231.194 429.734 231.194C429.734 231.194 391.85 229.643 392.517 242.963L375.646 239.955Z" fill="#FBFDFD"/>
<path d="M389.407 274.699C379.387 274.699 371.264 269.194 371.264 262.402C371.264 255.611 379.387 250.105 389.407 250.105C399.427 250.105 407.55 255.611 407.55 262.402C407.55 269.194 399.427 274.699 389.407 274.699Z" fill="#F59F49"/>
<path d="M414.111 287.025C409.452 287.025 405.675 284.463 405.675 281.303C405.675 278.143 409.452 275.581 414.111 275.581C418.77 275.581 422.546 278.143 422.546 281.303C422.546 284.463 418.77 287.025 414.111 287.025Z" fill="#F59F49"/>
<path d="M450.048 271.84C445.389 271.84 441.612 269.278 441.612 266.118C441.612 262.957 445.389 260.396 450.048 260.396C454.707 260.396 458.484 262.957 458.484 266.118C458.484 269.278 454.707 271.84 450.048 271.84Z" fill="#F59F49"/>
<path d="M487.854 349.876C604.533 349.876 662.611 338.565 659.147 318.645C655.684 298.725 589.532 311.025 580.88 312.693C572.228 314.362 487.854 349.876 487.854 349.876Z" fill="#EDD1B4"/>
<g clip-path="url(#clip0_1208_2022)">
<path d="M623.417 322.451L493.138 351.08C492.301 351.27 491.432 351.266 490.597 351.07C489.762 350.874 488.982 350.491 488.317 349.949C482.662 345.142 469.81 346.641 467.845 337.692L472.907 332.489C470.984 323.738 476.328 314.025 478.562 306.829C478.843 305.956 479.349 305.173 480.029 304.558C480.709 303.942 481.539 303.516 482.435 303.323L612.842 274.651C617.64 273.62 622.651 274.527 626.783 277.176C630.914 279.824 633.831 283.999 634.897 288.789L637.456 300.425C638.482 305.204 637.584 310.196 634.957 314.319C632.329 318.441 628.183 321.363 623.417 322.451Z" fill="#F2616D" stroke="#8C1C25" stroke-miterlimit="10"/>
<path d="M487.652 351.717C501.168 351.717 512.124 340.76 512.124 327.245C512.124 313.729 501.168 302.772 487.652 302.772C474.136 302.772 463.179 313.729 463.179 327.245C463.179 340.76 474.136 351.717 487.652 351.717Z" fill="#F7BABF" stroke="#8C1C25" stroke-miterlimit="10"/>
<path d="M468.099 328.377C468.637 330.817 470.121 332.944 472.226 334.29C474.33 335.637 476.883 336.093 479.324 335.559C484.414 334.442 488.895 329.38 487.807 324.248C486.718 319.116 481.19 313.433 476.1 314.55C471.011 315.667 466.982 323.287 468.099 328.377Z" fill="#FBE4E6"/>
<path d="M485.957 341.099C484.543 343.206 488.94 345.129 491.414 344.591C493.888 344.054 494.524 343.7 493.973 341.226C493.421 338.752 491.923 335.091 489.448 335.571C486.974 336.052 487.88 338.13 485.957 341.099Z" fill="#FBE4E6"/>
<path d="M493.49 325.605C494.183 328.729 498.311 330.468 501.435 329.846C504.56 329.224 504.489 325.845 503.796 322.777C503.104 319.709 501.251 316.74 498.141 317.419C495.031 318.098 492.811 322.494 493.49 325.605Z" fill="#FBE4E6"/>
<path d="M591.945 279.26L612.361 274.905C625.566 271.993 637.724 280.249 640.636 293.439C641.328 296.578 641.394 299.822 640.83 302.987C640.267 306.151 639.086 309.173 637.354 311.88C635.622 314.588 633.374 316.927 630.737 318.765C628.101 320.603 625.127 321.903 621.988 322.592L608.374 325.759" fill="#F2616D"/>
<path d="M591.945 279.26L612.361 274.905C625.566 271.993 637.724 280.249 640.636 293.439C641.328 296.578 641.394 299.822 640.83 302.987C640.267 306.151 639.086 309.173 637.354 311.88C635.622 314.588 633.374 316.927 630.737 318.765C628.101 320.603 625.127 321.903 621.988 322.592L608.374 325.759" stroke="#8C1C25" stroke-miterlimit="10"/>
<path d="M517.143 295.716C520.299 294.977 523.571 294.872 526.768 295.409C529.966 295.945 533.024 297.111 535.767 298.839C538.51 300.567 540.882 302.823 542.746 305.476C544.61 308.129 545.928 311.125 546.623 314.291C547.319 317.458 547.378 320.731 546.799 323.92C546.219 327.11 545.011 330.153 543.246 332.872C541.48 335.591 539.192 337.932 536.514 339.759C533.836 341.586 530.822 342.863 527.646 343.516" stroke="#8C1C25" stroke-miterlimit="10"/>
<path d="M548.811 288.734C551.967 287.995 555.239 287.89 558.437 288.426C561.634 288.962 564.693 290.128 567.436 291.857C570.178 293.585 572.55 295.841 574.414 298.493C576.278 301.146 577.596 304.143 578.292 307.309C578.987 310.475 579.047 313.748 578.467 316.938C577.887 320.128 576.68 323.17 574.915 325.889C573.149 328.608 570.86 330.949 568.183 332.776C565.505 334.604 562.491 335.881 559.315 336.533" stroke="#8C1C25" stroke-miterlimit="10"/>
<path d="M585.159 280.759C591.496 279.366 598.126 280.547 603.592 284.043C609.058 287.539 612.912 293.063 614.305 299.4C615.697 305.736 614.516 312.367 611.02 317.833C607.524 323.299 602.001 327.152 595.664 328.544" stroke="#8C1C25" stroke-miterlimit="10"/>
<path d="M507.262 312.398L613.394 289.07C613.394 289.07 637.965 282.002 640.539 293.637" stroke="#8C1C25" stroke-miterlimit="10"/>
<path d="M508.717 338.71L614.835 315.382C614.835 315.382 644.354 310.972 640.537 293.639" stroke="#8C1C25" stroke-miterlimit="10"/>
</g>
<path d="M88.9625 266.088L187.059 370.171L453.624 341.84L416.345 300.808L170.203 256.458L88.9625 266.088Z" fill="white"/>
<path d="M354.85 368.042C388.965 368.818 456.885 379.905 447.209 345.324C442.945 330.097 393.617 321.894 393.617 321.894L354.85 368.042Z" fill="#EDD1B4"/>
<path d="M113.8 298.975C114.157 307.597 113.304 311.923 136.487 320.405C153.731 326.717 270.265 352.334 328.773 365.034C355.481 370.951 383.388 368.012 408.277 356.661C410.96 355.42 413.441 354.164 415.643 352.877C417.735 351.663 419.439 349.879 420.557 347.735C421.675 345.59 422.162 343.173 421.961 340.763C421.759 338.352 420.879 336.049 419.42 334.119C417.961 332.19 415.985 330.715 413.72 329.864C404.82 326.395 395.697 323.524 386.413 321.274C365.525 316.622 163.283 276.893 143.977 275.776C129.323 274.939 113.258 286.166 113.8 298.975Z" fill="#F59F49"/>
<path d="M402.661 330.087C418.168 338.725 396.737 364.079 368.778 346.308C368.778 346.308 370.329 351.626 354.651 350.076C338.974 348.525 326.428 327.994 326.428 327.994L343.114 344.106C343.114 344.106 331.592 362.125 316.349 350.076C301.105 338.027 313.046 334.041 313.046 334.041C313.046 334.041 292.499 351.099 275.628 341.981C258.756 332.863 267.673 325.094 267.673 325.094C267.673 325.094 245.11 344.4 219.508 332.724C204.932 326.087 216.407 316.038 216.407 316.038C209.442 319.157 201.881 320.718 194.25 320.614C186.62 320.509 179.104 318.741 172.227 315.433C157.185 319.449 146.843 310.549 145.556 307.199C129.475 313.604 119.008 304.098 122.528 299.771C126.048 295.445 135.553 290.793 135.553 290.793L402.661 330.087Z" fill="#294D17"/>
<path d="M125.477 281.277C110.513 289.03 98.432 305.204 130.966 298.954C132.294 300.739 133.975 302.233 135.903 303.342C137.832 304.452 139.967 305.154 142.177 305.405C153.265 306.692 156.133 303.265 156.133 303.265C156.133 303.265 163.221 324.246 181.829 318.664C200.437 313.081 200.856 307.235 200.856 307.235C200.856 307.235 192.529 330.247 211.587 327.952C230.645 325.657 233.296 313.345 233.296 313.345C233.296 313.345 233.622 334.744 261.566 331.348C289.509 327.952 300.333 324.215 300.333 324.215C300.333 324.215 294.347 343.894 326.927 343.646C359.507 343.397 368.796 330.092 368.796 330.092L125.477 281.277Z" fill="#6EB749"/>
<path d="M188.684 287.618C189.251 277.999 175.523 269.367 158.022 268.336C140.521 267.306 125.875 274.268 125.309 283.886C124.742 293.504 138.47 302.136 155.971 303.167C173.472 304.197 188.118 297.236 188.684 287.618Z" fill="#E84646"/>
<path d="M140.388 285.935C140.388 285.935 152.793 312.297 154.235 313.537C155.677 314.778 190.537 298.17 199.934 298.123C209.332 298.077 143.303 278.662 140.388 285.935Z" fill="#F7CC4A"/>
<path d="M259.337 304.098C259.941 293.839 245.309 284.631 226.654 283.533C207.999 282.434 192.386 289.861 191.782 300.12C191.178 310.379 205.811 319.587 224.466 320.685C243.121 321.784 258.733 314.357 259.337 304.098Z" fill="#E84646"/>
<path d="M208.85 302.428C208.85 302.428 221.255 328.79 222.698 330.031C224.14 331.271 258.983 314.663 268.396 314.617C277.809 314.57 211.78 295.14 208.85 302.428Z" fill="#F7CC4A"/>
<path d="M335.287 317.332C335.891 307.072 321.258 297.865 302.603 296.767C283.948 295.668 268.336 303.094 267.732 313.354C267.128 323.613 281.76 332.82 300.415 333.919C319.07 335.017 334.683 327.591 335.287 317.332Z" fill="#E84646"/>
<path d="M290.938 317.655C290.938 317.655 303.344 344.017 304.786 345.242C306.228 346.467 341.088 329.89 350.485 329.828C359.882 329.766 293.854 310.382 290.938 317.655Z" fill="#F7CC4A"/>
<path d="M410.058 323.755C410.662 313.496 396.029 304.288 377.374 303.19C358.719 302.091 343.106 309.518 342.502 319.777C341.898 330.036 356.531 339.244 375.186 340.342C393.841 341.441 409.453 334.014 410.058 323.755Z" fill="#E84646"/>
<path d="M397.135 281.474C383.831 276.434 197.483 243.59 173.975 240.225C146.574 236.318 126.058 249.948 113.653 274.558C113.382 275.129 113.231 275.748 113.208 276.379C113.184 277.01 113.29 277.64 113.517 278.229C113.745 278.818 114.091 279.355 114.533 279.806C114.975 280.257 115.504 280.614 116.088 280.854C132.231 287.165 181.419 298.175 215.332 304.641C226.296 312.395 340.256 328.677 359.128 330.104C378 331.531 412.115 331.205 418.644 316.939C425.172 302.672 414.658 288.111 397.135 281.474Z" fill="#F59F49"/>
<path d="M153.612 256.679C153.612 251.422 176.872 240.459 184.92 241.777C192.968 243.095 196.69 243.901 196.69 243.901C196.69 243.901 153.581 262.417 153.612 256.679Z" fill="#FF6A4D"/>
<path d="M189.88 262.861C189.88 257.604 213.14 246.64 221.188 247.958C229.236 249.277 232.338 249.99 232.338 249.99C232.338 249.99 189.849 268.598 189.88 262.861Z" fill="#FF6A4D"/>
<path d="M225.709 268.805C225.709 263.548 247.279 252.771 255.296 254.089C263.313 255.407 267.841 256.554 267.841 256.554C267.841 256.554 225.677 274.496 225.709 268.805Z" fill="#FF6A4D"/>
<path d="M264.138 276.238C264.138 270.981 287.398 260.002 295.446 261.336C303.494 262.669 307.355 263.522 307.355 263.522C307.355 263.522 264.107 281.976 264.138 276.238Z" fill="#FF6A4D"/>
<path d="M305.166 283.82C305.166 278.563 328.427 267.6 336.475 268.918C344.523 270.236 348.291 271.151 348.291 271.151C348.291 271.151 305.12 289.542 305.166 283.82Z" fill="#FF6A4D"/>
<path d="M343.783 292.204C343.783 286.947 367.664 275.255 375.681 276.573C383.698 277.891 388.94 279.287 388.94 279.287C388.94 279.287 343.783 297.941 343.783 292.204Z" fill="#FF6A4D"/>
<defs>
<clipPath id="clip0_1208_2022">
<rect width="190.605" height="78.9029" fill="white" transform="translate(462.471 273.521)"/>
</clipPath>
</defs>
</svg>
